<svg xmlns="http://www.w3.org/2000/svg" xmlns:xlink="http://www.w3.org/1999/xlink" id="Layer_2" data-name="Layer 2" viewBox="0 0 312.12 166.05"><defs><style>      .cls-1 {        clip-path: url(#clippath);      }      .cls-2 {        fill: none;      }      .cls-2, .cls-3, .cls-4, .cls-5, .cls-6, .cls-7, .cls-8 {        stroke-width: 0px;      }      .cls-3 {        fill: url(#linear-gradient);      }      .cls-4 {        fill: url(#linear-gradient-4);        fill-opacity: .2;      }      .cls-5 {        fill: url(#linear-gradient-3);      }      .cls-6 {        fill: url(#linear-gradient-2);        fill-opacity: .3;      }      .cls-7 {        fill: #100d25;      }      .cls-8 {        fill: #217bee;      }    </style><clipPath id="clippath"><rect class="cls-2" y="6.44" width="96.46" height="120"></rect></clipPath><linearGradient id="linear-gradient" x1="15.91" y1="8149.4" x2="15.91" y2="8240.36" gradientTransform="translate(0 8263.07) scale(1 -1)" gradientUnits="userSpaceOnUse"><stop offset=".25" stop-color="#ec683e"></stop><stop offset="1" stop-color="#d13b5f"></stop></linearGradient><linearGradient id="linear-gradient-2" x1="15.91" y1="8179.88" x2="15.91" y2="8256.28" gradientTransform="translate(0 8263.07) scale(1 -1)" gradientUnits="userSpaceOnUse"><stop offset="0" stop-color="#000" stop-opacity="0"></stop><stop offset="1" stop-color="#000"></stop></linearGradient><linearGradient id="linear-gradient-3" x1="14.65" y1="8245" x2="81.44" y2="8147.63" gradientTransform="translate(0 8263.07) scale(1 -1)" gradientUnits="userSpaceOnUse"><stop offset=".25" stop-color="#d13b5f"></stop><stop offset="1" stop-color="#217bee"></stop></linearGradient><linearGradient id="linear-gradient-4" x1="46.14" y1="8199.31" x2="79.9" y2="8146.19" xlink:href="#linear-gradient-2"></linearGradient></defs><g id="Layer_1-2" data-name="Layer 1"><g><g class="cls-1"><g><path class="cls-3" d="M31.98,108.22L-.17,126.78V25.34L31.98,6.78v101.44Z"></path><path class="cls-6" d="M31.98,108.22L-.17,126.78V25.34L31.98,6.78v101.44Z"></path><path class="cls-5" d="M96.29,108.22l-32.16,18.56L-.17,25.34,31.98,6.78l64.31,101.44Z"></path><path class="cls-4" d="M96.29,108.22l-32.16,18.56L-.17,25.34,31.98,6.78l64.31,101.44Z"></path><path class="cls-8" d="M96.29,108.22l-32.16,18.56V25.34L96.29,6.78v101.44Z"></path></g></g><g><path class="cls-7" d="M132.51,144.78v-1.63h3.88c.75,0,1.32-.21,1.73-.63.42-.43.63-1,.63-1.71s-.2-1.29-.61-1.69c-.41-.42-.99-.63-1.75-.63h-3.88v-1.22h3.61c.89,0,1.67.11,2.34.32.68.22,1.22.58,1.6,1.08.39.49.59,1.17.59,2.03v.27c0,.81-.16,1.5-.49,2.07-.33.56-.83.99-1.5,1.29-.67.29-1.51.44-2.53.44h-3.61ZM131.03,144.78v-14.02h1.86v14.02h-1.86ZM132.51,138.15v-1.22h3.36c.79,0,1.36-.21,1.73-.63.38-.43.57-.98.57-1.63s-.19-1.22-.57-1.63c-.37-.43-.94-.65-1.73-.65h-3.36v-1.63h3.04c1.52,0,2.65.32,3.4.97.75.63,1.12,1.55,1.12,2.76v.27c0,.85-.19,1.53-.57,2.03-.38.49-.91.85-1.6,1.06-.67.2-1.46.3-2.36.3h-3.04ZM146.22,144.71v-13.87h1.86v13.87h-1.86ZM147.71,144.71v-1.67h6.73v1.67h-6.73ZM147.71,138.49v-1.67h6.14v1.67h-6.14ZM147.71,132.51v-1.67h6.54v1.67h-6.54ZM162.6,139.31l-4.41-8.47h1.94l3.72,7.26-.72-.21h2.24l-.76.21,3.5-7.26h1.82l-4.14,8.47h-3.19ZM163.28,144.71v-5.78h1.82v5.78h-1.82ZM180.32,145.05c-1.24,0-2.31-.22-3.21-.67-.9-.44-1.64-1.03-2.22-1.75-.58-.72-1.02-1.5-1.31-2.32-.28-.82-.42-1.62-.42-2.38v-.42c0-.82.15-1.65.44-2.49.29-.84.73-1.6,1.33-2.28.6-.7,1.34-1.25,2.22-1.67.9-.42,1.96-.63,3.17-.63s2.27.21,3.15.63c.9.42,1.65.98,2.24,1.67.6.68,1.04,1.44,1.33,2.28.29.84.44,1.67.44,2.49v.42c0,.76-.15,1.55-.44,2.38-.28.82-.71,1.6-1.29,2.32-.58.72-1.32,1.3-2.22,1.75-.9.44-1.97.67-3.21.67ZM180.32,143.34c.81,0,1.54-.15,2.19-.46.66-.3,1.22-.72,1.67-1.24.46-.53.8-1.13,1.05-1.79.24-.67.36-1.38.36-2.11,0-.77-.12-1.5-.36-2.17-.24-.67-.59-1.26-1.05-1.77-.46-.52-1.01-.93-1.67-1.22-.65-.29-1.38-.44-2.19-.44s-1.55.15-2.2.44c-.65.29-1.2.7-1.65,1.22-.46.51-.81,1.1-1.05,1.77-.24.67-.36,1.39-.36,2.17s.12,1.44.36,2.11c.24.66.59,1.25,1.05,1.79.46.52,1.01.93,1.65,1.24.66.3,1.39.46,2.2.46ZM192.83,144.71v-13.87h3.04l7.05,12.2h.61l-.38.34v-12.54h1.79v13.87h-3.08l-7.05-12.2h-.61l.38-.34v12.54h-1.75ZM212.72,144.78v-1.71h3.46c.84,0,1.58-.13,2.22-.4.66-.28,1.22-.66,1.67-1.14.47-.48.82-1.05,1.06-1.69.24-.65.36-1.34.36-2.09,0-.79-.12-1.5-.36-2.13-.24-.65-.6-1.2-1.06-1.67-.46-.48-1.01-.85-1.67-1.1-.65-.25-1.39-.38-2.22-.38h-3.46v-1.71h3.27c1.25,0,2.34.2,3.27.59.93.38,1.69.9,2.3,1.56.62.65,1.08,1.37,1.39,2.19.3.8.46,1.62.46,2.45v.42c0,.81-.15,1.62-.46,2.43-.3.81-.77,1.55-1.39,2.2-.61.66-1.37,1.19-2.3,1.6-.93.39-2.01.59-3.27.59h-3.27ZM211.24,144.78v-14.02h1.86v14.02h-1.86ZM137.05,166.05c-1.27,0-2.35-.22-3.25-.67-.89-.44-1.6-1.02-2.15-1.73-.54-.71-.94-1.48-1.2-2.3-.25-.84-.38-1.64-.38-2.41v-.42c0-.84.13-1.67.38-2.51.27-.84.67-1.6,1.22-2.28.55-.68,1.25-1.24,2.13-1.65.87-.42,1.92-.63,3.14-.63s2.31.22,3.19.65c.89.43,1.59,1.03,2.11,1.81.52.77.84,1.68.95,2.74h-1.9c-.1-.79-.35-1.43-.76-1.94-.41-.52-.92-.91-1.54-1.16-.61-.25-1.29-.38-2.05-.38-.82,0-1.55.15-2.17.44-.62.28-1.14.68-1.56,1.2-.41.51-.72,1.1-.93,1.77-.2.67-.3,1.4-.3,2.19s.1,1.46.3,2.13c.22.67.53,1.27.95,1.79.43.52.96.93,1.6,1.24.63.29,1.38.44,2.22.44,1.19,0,2.19-.3,3-.89.81-.6,1.31-1.46,1.48-2.58h1.9c-.13.95-.45,1.82-.97,2.6-.51.79-1.22,1.41-2.13,1.88-.9.47-2,.7-3.29.7ZM154.63,166.05c-1.24,0-2.31-.22-3.21-.67-.9-.44-1.64-1.03-2.22-1.75-.58-.72-1.02-1.5-1.31-2.32-.28-.82-.42-1.62-.42-2.38v-.42c0-.82.15-1.65.44-2.49.29-.84.73-1.6,1.33-2.28.6-.7,1.34-1.25,2.22-1.67.9-.42,1.96-.63,3.17-.63s2.27.21,3.15.63c.9.42,1.65.98,2.24,1.67.6.68,1.04,1.44,1.33,2.28.29.84.44,1.67.44,2.49v.42c0,.76-.15,1.55-.44,2.38-.28.82-.71,1.6-1.29,2.32-.58.72-1.32,1.3-2.22,1.75-.9.44-1.97.67-3.21.67ZM154.63,164.34c.81,0,1.54-.15,2.19-.46.66-.3,1.22-.72,1.67-1.24.46-.53.8-1.13,1.05-1.79.24-.67.36-1.38.36-2.11,0-.77-.12-1.5-.36-2.17-.24-.67-.59-1.26-1.05-1.77-.46-.52-1.01-.93-1.67-1.22-.65-.29-1.38-.44-2.19-.44s-1.55.15-2.2.44c-.65.29-1.2.7-1.65,1.22-.46.51-.81,1.1-1.05,1.77-.24.67-.36,1.39-.36,2.17s.12,1.44.36,2.11c.24.66.59,1.25,1.05,1.79.46.52,1.01.93,1.65,1.24.66.3,1.39.46,2.2.46ZM167.13,165.71v-13.87h3.04l7.05,12.2h.61l-.38.34v-12.54h1.79v13.87h-3.08l-7.05-12.2h-.61l.38-.34v12.54h-1.75ZM190.04,166.05c-1.15,0-2.13-.19-2.95-.57-.81-.38-1.43-.91-1.86-1.58-.43-.67-.65-1.43-.65-2.28h1.86c0,.42.11.84.32,1.25.23.42.6.77,1.12,1.05.53.28,1.25.42,2.15.42.84,0,1.52-.12,2.05-.36.53-.25.93-.58,1.18-.97.25-.41.38-.84.38-1.31,0-.57-.25-1.04-.74-1.41-.49-.38-1.22-.62-2.17-.7l-1.54-.13c-1.23-.1-2.21-.48-2.95-1.14-.73-.66-1.1-1.53-1.1-2.6,0-.85.2-1.59.61-2.22.42-.63,1-1.13,1.73-1.48.74-.37,1.59-.55,2.57-.55s1.81.18,2.55.53c.74.35,1.31.86,1.71,1.5.42.63.63,1.39.63,2.28h-1.86c0-.44-.11-.86-.32-1.25-.2-.39-.53-.72-.97-.97-.44-.25-1.02-.38-1.73-.38s-1.25.12-1.71.36c-.44.24-.78.56-1.01.95-.22.38-.32.79-.32,1.24,0,.51.2.96.59,1.35.39.39.98.62,1.75.68l1.54.13c.95.08,1.77.28,2.45.61.7.32,1.23.75,1.6,1.29.38.53.57,1.17.57,1.92,0,.85-.23,1.6-.68,2.26-.46.66-1.1,1.17-1.92,1.54-.82.37-1.78.55-2.87.55ZM206.41,166.05c-1.25,0-2.31-.24-3.17-.72-.85-.49-1.5-1.18-1.94-2.05-.43-.89-.65-1.91-.65-3.08v-8.36h1.86v8.59c0,.77.15,1.46.44,2.05.3.58.75,1.04,1.33,1.37.58.33,1.29.49,2.13.49s1.54-.16,2.11-.48c.58-.33,1.02-.79,1.31-1.37.3-.6.46-1.29.46-2.07v-8.59h1.86v8.36c0,1.17-.22,2.19-.65,3.08-.43.87-1.07,1.56-1.92,2.05-.85.48-1.91.72-3.17.72ZM218.19,165.71v-13.87h1.86v13.87h-1.86ZM219.68,165.71v-1.67h6.35v1.67h-6.35ZM232.25,165.71v-12.58h1.86v12.58h-1.86ZM228.03,153.51v-1.67h10.3v1.67h-10.3ZM243.15,165.71v-13.87h1.86v13.87h-1.86ZM251.36,165.71v-13.87h3.04l7.05,12.2h.61l-.38.34v-12.54h1.79v13.87h-3.08l-7.05-12.2h-.61l.38-.34v12.54h-1.75ZM275.96,166.05c-1.08,0-2.05-.18-2.93-.53-.87-.36-1.63-.86-2.26-1.5-.62-.65-1.1-1.41-1.44-2.28-.34-.89-.51-1.85-.51-2.89v-.42c0-.89.15-1.74.46-2.57.32-.84.77-1.58,1.35-2.24.6-.67,1.32-1.2,2.17-1.58.85-.39,1.81-.59,2.87-.59,1.15,0,2.18.22,3.08.67.9.43,1.62,1.04,2.17,1.82.55.77.86,1.67.95,2.7h-1.9c-.09-.77-.34-1.41-.76-1.92-.42-.52-.94-.91-1.56-1.16-.61-.27-1.27-.4-1.98-.4s-1.39.13-2,.4c-.61.25-1.13.62-1.58,1.1-.43.48-.77,1.06-1.01,1.73-.24.67-.36,1.43-.36,2.26,0,.95.13,1.79.38,2.51.27.71.63,1.3,1.1,1.79.47.47,1.02.82,1.65,1.06.65.24,1.35.36,2.11.36,1.08,0,2.02-.22,2.83-.65.82-.44,1.44-1.01,1.86-1.71l-.68,2.26v-4.12h1.75v3.31c-.62.81-1.42,1.44-2.39,1.9-.98.46-2.1.68-3.36.68ZM275.47,160.54v-1.56h7.43v1.56h-7.43Z"></path><g><path class="cls-7" d="M146.22,51.24c5.88-11.2,15.12-16.24,23.94-16.24,12.46,0,24.08,9.94,24.08,26.04v43.4h-16.1v-40.32c0-14.84-6.72-22.12-14.42-22.12-6.16,0-13.16,4.9-17.5,14.42v48.02h-16.1V38.92l15.82-3.36h.28v15.68Z"></path><path class="cls-7" d="M251.15,19.46c-11.06-10.5-18.62-15.68-22.82-15.68-2.94,0-4.34,2.38-4.34,7.14v25.62h21.98v3.08h-21.98v64.82h-16.24V39.62h-9.8v-3.08h9.8v-1.54c0-27.86,13.72-35,28.56-35,5.04,0,10.22.84,14.98,1.96l-.14,17.5Z"></path><path class="cls-7" d="M311.84,35.56l-17.64,12.6c-3.92-8.54-12.46-13.16-21.28-13.16-13.58,0-28,10.92-28,35.42s13.02,35.56,26.18,35.56c10.08,0,20.3-6.86,24.92-20.3v60.2h16.1V35.56h-.28ZM296.02,70.98c-.14,18.06-8.68,27.02-17.22,27.02s-17.22-9.1-17.22-27.58c0-20.02,9.1-29.68,17.92-29.68,8.26,0,16.38,8.54,16.52,24.64v5.6Z"></path></g></g></g></g></svg>